<svg width="24" height="24" viewBox="0 0 24 24" fill="none" xmlns="http://www.w3.org/2000/svg"><path d="M19.247 4.583a.824.824 0 1 1 1.165 1.165l-7.416 7.416a.824.824 0 0 1-1.165-1.166l7.416-7.415z" fill="currentColor"/><path d="M19.007 5.99h-3.296a.824.824 0 0 1 0-1.647h4.12c.455 0 .824.369.824.824v4.12a.824.824 0 0 1-1.648 0V5.991zm-1.646 7.005a.824.824 0 1 1 1.648 0v4.635A2.37 2.37 0 0 1 16.64 20H7.37A2.37 2.37 0 0 1 5 17.63V8.36a2.37 2.37 0 0 1 2.37-2.37h5.02a.824.824 0 1 1 0 1.648H7.37a.721.721 0 0 0-.722.721v9.271c0 .399.323.721.721.721h9.271a.721.721 0 0 0 .721-.72v-4.636z" fill="currentColor"/></svg>